<?xml version="1.0" ?><!DOCTYPE svg  PUBLIC '-//W3C//DTD SVG 1.1//EN'  'http://www.w3.org/Graphics/SVG/1.1/DTD/svg11.dtd'><svg clip-rule="evenodd" fill-rule="evenodd" font-size="0" height="512px" image-rendering="optimizeQuality" preserveAspectRatio="xMidYMid" shape-rendering="geometricPrecision" text-rendering="geometricPrecision" version="1.1" viewBox="0, 0, 512000, 512000" width="512px" xml:space="preserve" xmlns="http://www.w3.org/2000/svg" xmlns:xlink="http://www.w3.org/1999/xlink" xmlns:xml="http://www.w3.org/XML/1998/namespace"><g><path d="M257130 6860 C394934 6860 506647 118573 506647 256377 C506647 394181 394934 505894 257130 505894 C119326 505894 7613 394181 7613 256377 C7613 118573 119326 6860 257130 6860 z" style="fill:#000000;"/></g><g><path d="M184103 256001 C184268 269939 186567 282035 190999 292290 C195603 302942 201832 311790 209686 318832 C217540 325874 226703 331065 237176 334405 C247648 337745 258752 339415 270489 339415 C277710 339415 284482 338513 290800 336707 C297120 334901 302898 332554 308134 329665 C313370 326776 317974 323706 321947 320457 C325919 317207 329259 314047 331968 310977 C332870 310075 333683 309397 334406 308945 C335128 308494 336211 308268 337655 308268 C339642 308268 341222 308900 342395 310164 C343569 311428 344156 312872 344156 314497 C344156 316303 343569 318154 342395 320049 C341222 321945 340184 323344 339280 324247 C336031 327859 332104 331469 327498 335080 C322894 338692 317613 341941 311655 344830 C305696 347719 299197 350021 292155 351737 C285113 353452 277529 354309 269405 354309 C255502 354309 242412 352188 230134 347944 C217856 343701 207113 337381 197905 328986 C188696 320590 181384 310163 175967 297704 C170848 285930 168147 272381 167867 257057 L167843 257057 L167851 255998 L167843 254937 L167867 254937 C168147 239613 170848 226065 175967 214290 C181384 201832 188696 191405 197905 183008 C207113 174613 217856 168293 230134 164050 C242412 159806 255502 157685 269405 157685 C277530 157685 285114 158542 292155 160257 C299197 161973 305696 164275 311655 167164 C317614 170053 322894 173302 327498 176914 C332103 180525 336030 184135 339280 187747 C340184 188649 341222 190049 342395 191945 C343569 193841 344156 195691 344156 197497 C344156 199122 343569 200567 342395 201830 C341222 203094 339642 203726 337655 203726 C336211 203726 335127 203500 334406 203049 C333683 202598 332871 201920 331968 201017 C329260 197947 325920 194788 321947 191537 C317974 188288 313370 185218 308134 182329 C302898 179440 297120 177093 290800 175287 C284481 173481 277710 172579 270489 172579 C258752 172579 247648 174249 237176 177589 C226703 180929 217540 186120 209686 193162 C201832 200204 195602 209051 190999 219704 C186566 229960 184268 242056 184103 255995 z" style="fill:#FFFFFF;"/></g></svg>